 HIERARCHY
ROOT Hips
{
   OFFSET 0.0 0.0 96.619003
   CHANNELS 6 Xposition Yposition Zposition Yrotation Xrotation Zrotation
   JOINT RightUpLeg
   {
      OFFSET -11.0 0.0 0.0
      CHANNELS 3 Yrotation Xrotation Zrotation
      JOINT RightLeg
      {
         OFFSET 0.0 -45.062 0.0
         CHANNELS 3 Yrotation Xrotation Zrotation
         JOINT RightFoot
         {
            OFFSET 0.0 -42.057999 0.0
            CHANNELS 3 Yrotation Xrotation Zrotation
              End Site
              {
                  OFFSET 0 0 0
              }
         }
      }
   }
   JOINT LeftUpLeg
   {
      OFFSET 11.0 0.0 0.0
      CHANNELS 3 Yrotation Xrotation Zrotation
      JOINT LeftLeg
      {
         OFFSET 0.0 -45.062 0.0
         CHANNELS 3 Yrotation Xrotation Zrotation
         JOINT LeftFoot
         {
            OFFSET 0.0 -42.057999 0.0
            CHANNELS 3 Yrotation Xrotation Zrotation
              End Site
              {
                  OFFSET 0 0 0
              }
         }
      }
   }
   JOINT Spine
   {
      OFFSET 0.0 8.12 0.0
      CHANNELS 3 Yrotation Xrotation Zrotation
      JOINT Spine1
      {
         OFFSET 0.0 17.98 0.0
         CHANNELS 3 Yrotation Xrotation Zrotation
         JOINT Spine2
         {
            OFFSET 0.0 12.76 0.0
            CHANNELS 3 Yrotation Xrotation Zrotation
            JOINT Neck
            {
               OFFSET 0.0 19.139999 0.0
               CHANNELS 3 Yrotation Xrotation Zrotation
               JOINT Neck1
               {
                  OFFSET 0.0 4.25 0.0
                  CHANNELS 3 Yrotation Xrotation Zrotation
                  JOINT Head
                  {
                     OFFSET 0.0 4.25 0.0
                     CHANNELS 3 Yrotation Xrotation Zrotation
                       End Site
                       {
                           OFFSET 0 0 0
                       }
                  }
               }
            }
            JOINT RightShoulder
            {
               OFFSET -2.9 13.34 0.0
               CHANNELS 3 Yrotation Xrotation Zrotation
               JOINT RightArm
               {
                  OFFSET -16.1 0.0 0.0
                  CHANNELS 3 Yrotation Xrotation Zrotation
                  JOINT RightForeArm
                  {
                     OFFSET -28.0 0.0 0.0
                     CHANNELS 3 Yrotation Xrotation Zrotation
                     JOINT RightHand
                     {
                        OFFSET -26.0 0.0 0.0
                        CHANNELS 3 Yrotation Xrotation Zrotation
                        JOINT RightHandThumb1
                        {
                           OFFSET -2.702 0.206 3.388
                           CHANNELS 3 Yrotation Xrotation Zrotation
                           JOINT RightHandThumb2
                           {
                              OFFSET -3.998 0.0 0.0
                              CHANNELS 3 Yrotation Xrotation Zrotation
                              JOINT RightHandThumb3
                              {
                                 OFFSET -2.778 0.0 0.0
                                 CHANNELS 3 Yrotation Xrotation Zrotation
                                   End Site
                                   {
                                       OFFSET 0 0 0
                                   }
                              }
                           }
                        }
                        JOINT RightHandIndex
                        {
                           OFFSET -3.5 0.552 2.148
                           CHANNELS 3 Yrotation Xrotation Zrotation
                           JOINT RightHandIndex1
                           {
                              OFFSET -5.664001 -0.099 1.085
                              CHANNELS 3 Yrotation Xrotation Zrotation
                              JOINT RightHandIndex2
                              {
                                 OFFSET -3.93 0.0 0.0
                                 CHANNELS 3 Yrotation Xrotation Zrotation
                                 JOINT RightHandIndex3
                                 {
                                    OFFSET -2.228 0.0 0.0
                                    CHANNELS 3 Yrotation Xrotation Zrotation
                                      End Site
                                      {
                                          OFFSET 0 0 0
                                      }
                                 }
                              }
                           }
                        }
                        JOINT RightHandMiddle
                        {
                           OFFSET -3.672 0.562 0.822
                           CHANNELS 3 Yrotation Xrotation Zrotation
                           JOINT RightHandMiddle1
                           {
                              OFFSET -5.618 -0.091 0.341
                              CHANNELS 3 Yrotation Xrotation Zrotation
                              JOINT RightHandMiddle2
                              {
                                 OFFSET -4.288001 0.0 0.0
                                 CHANNELS 3 Yrotation Xrotation Zrotation
                                 JOINT RightHandMiddle3
                                 {
                                    OFFSET -2.688 0.0 0.0
                                    CHANNELS 3 Yrotation Xrotation Zrotation
                                      End Site
                                      {
                                          OFFSET 0 0 0
                                      }
                                 }
                              }
                           }
                        }
                        JOINT RightHandRing
                        {
                           OFFSET -3.654001 0.584 -0.14
                           CHANNELS 3 Yrotation Xrotation Zrotation
                           JOINT RightHandRing1
                           {
                              OFFSET -5.032 -0.024 -0.52
                              CHANNELS 3 Yrotation Xrotation Zrotation
                              JOINT RightHandRing2
                              {
                                 OFFSET -3.737 0.0 0.0
                                 CHANNELS 3 Yrotation Xrotation Zrotation
                                 JOINT RightHandRing3
                                 {
                                    OFFSET -2.593 0.0 0.0
                                    CHANNELS 3 Yrotation Xrotation Zrotation
                                      End Site
                                      {
                                          OFFSET 0 0 0
                                      }
                                 }
                              }
                           }
                        }
                        JOINT RightHandPinky
                        {
                           OFFSET -3.432 0.51 -1.305
                           CHANNELS 3 Yrotation Xrotation Zrotation
                           JOINT RightHandPinky1
                           {
                              OFFSET -4.496 -0.024 -1.184
                              CHANNELS 3 Yrotation Xrotation Zrotation
                              JOINT RightHandPinky2
                              {
                                 OFFSET -2.993 0.0 0.0
                                 CHANNELS 3 Yrotation Xrotation Zrotation
                                 JOINT RightHandPinky3
                                 {
                                    OFFSET -1.891 0.0 0.0
                                    CHANNELS 3 Yrotation Xrotation Zrotation
                                      End Site
                                      {
                                          OFFSET 0 0 0
                                      }
                                 }
                              }
                           }
                        }
                     }
                  }
               }
            }
            JOINT LeftShoulder
            {
               OFFSET 2.9 13.34 0.0
               CHANNELS 3 Yrotation Xrotation Zrotation
               JOINT LeftArm
               {
                  OFFSET 16.1 0.0 0.0
                  CHANNELS 3 Yrotation Xrotation Zrotation
                  JOINT LeftForeArm
                  {
                     OFFSET 28.0 0.0 0.0
                     CHANNELS 3 Yrotation Xrotation Zrotation
                     JOINT LeftHand
                     {
                        OFFSET 26.0 0.0 0.0
                        CHANNELS 3 Yrotation Xrotation Zrotation
                        JOINT LeftHandThumb1
                        {
                           OFFSET 2.702 0.206 3.388
                           CHANNELS 3 Yrotation Xrotation Zrotation
                           JOINT LeftHandThumb2
                           {
                              OFFSET 3.998 0.0 0.0
                              CHANNELS 3 Yrotation Xrotation Zrotation
                              JOINT LeftHandThumb3
                              {
                                 OFFSET 2.778 0.0 0.0
                                 CHANNELS 3 Yrotation Xrotation Zrotation
                                   End Site
                                   {
                                       OFFSET 0 0 0
                                   }
                              }
                           }
                        }
                        JOINT LeftHandIndex
                        {
                           OFFSET 3.5 0.552 2.148
                           CHANNELS 3 Yrotation Xrotation Zrotation
                           JOINT LeftHandIndex1
                           {
                              OFFSET 5.664001 -0.099 1.085
                              CHANNELS 3 Yrotation Xrotation Zrotation
                              JOINT LeftHandIndex2
                              {
                                 OFFSET 3.93 0.0 0.0
                                 CHANNELS 3 Yrotation Xrotation Zrotation
                                 JOINT LeftHandIndex3
                                 {
                                    OFFSET 2.228 0.0 0.0
                                    CHANNELS 3 Yrotation Xrotation Zrotation
                                      End Site
                                      {
                                          OFFSET 0 0 0
                                      }
                                 }
                              }
                           }
                        }
                        JOINT LeftHandMiddle
                        {
                           OFFSET 3.672 0.562 0.822
                           CHANNELS 3 Yrotation Xrotation Zrotation
                           JOINT LeftHandMiddle1
                           {
                              OFFSET 5.618 -0.091 0.341
                              CHANNELS 3 Yrotation Xrotation Zrotation
                              JOINT LeftHandMiddle2
                              {
                                 OFFSET 4.288001 0.0 0.0
                                 CHANNELS 3 Yrotation Xrotation Zrotation
                                 JOINT LeftHandMiddle3
                                 {
                                    OFFSET 2.688 0.0 0.0
                                    CHANNELS 3 Yrotation Xrotation Zrotation
                                      End Site
                                      {
                                          OFFSET 0 0 0
                                      }
                                 }
                              }
                           }
                        }
                        JOINT LeftHandRing
                        {
                           OFFSET 3.654001 0.584 -0.14
                           CHANNELS 3 Yrotation Xrotation Zrotation
                           JOINT LeftHandRing1
                           {
                              OFFSET 5.032 -0.024 -0.52
                              CHANNELS 3 Yrotation Xrotation Zrotation
                              JOINT LeftHandRing2
                              {
                                 OFFSET 3.737 0.0 0.0
                                 CHANNELS 3 Yrotation Xrotation Zrotation
                                 JOINT LeftHandRing3
                                 {
                                    OFFSET 2.593 0.0 0.0
                                    CHANNELS 3 Yrotation Xrotation Zrotation
                                      End Site
                                      {
                                          OFFSET 0 0 0
                                      }
                                 }
                              }
                           }
                        }
                        JOINT LeftHandPinky
                        {
                           OFFSET 3.432 0.51 -1.305
                           CHANNELS 3 Yrotation Xrotation Zrotation
                           JOINT LeftHandPinky1
                           {
                              OFFSET 4.496 -0.024 -1.184
                              CHANNELS 3 Yrotation Xrotation Zrotation
                              JOINT LeftHandPinky2
                              {
                                 OFFSET 2.993 0.0 0.0
                                 CHANNELS 3 Yrotation Xrotation Zrotation
                                 JOINT LeftHandPinky3
                                 {
                                    OFFSET 1.891 0.0 0.0
                                    CHANNELS 3 Yrotation Xrotation Zrotation
                                      End Site
                                      {
                                          OFFSET 0 0 0
                                      }
                                 }
                              }
                           }
                        }
                     }
                  }
               }
            }
         }
      }
   }
}
MOTION
Frames: 7
Frame Time: 0.011111
-24.0688 100.088 105.299 173.885 6.89845 2.44256 3.4784 -10.6446 -1.79009 179.977 174.39 -179.444 178.569 -176.354 179.501 6.04519 -8.8476 -4.90827 179.885 174.955 -179.37 179.043 -174.907 179.919 180 179.512 179.925 180 -179.842 -179.976 0.137015 1.94317 -1.87615 0.166606 -1.58002 -0.64513 0.166609 -1.58002 -0.645129 0.171977 -1.62822 -0.6649 175.62 179.463 -173.021 4.97166 -3.98701 77.4085 22.8707 44.5428 24.8445 1.43944 48.0316 -88.0811 89.9999 80 57.5943 9.52698e-06 8.86734e-07 31.1876 180 -180 -169.406 3.41509e-06 3.41509e-06 3.41509e-06 3.41509e-06 3.41509e-06 3.41509e-06 3.41509e-06 3.41509e-06 3.41509e-06 3.41509e-06 3.41509e-06 3.41509e-06 3.41509e-06 3.41509e-06 3.41509e-06 3.41509e-06 3.41509e-06 3.41509e-06 3.41509e-06 3.41509e-06 3.41509e-06 3.41509e-06 3.41509e-06 3.41509e-06 3.41509e-06 3.41509e-06 3.41509e-06 3.41509e-06 3.41509e-06 3.41509e-06 3.41509e-06 3.41509e-06 3.41509e-06 3.41509e-06 3.41509e-06 3.41509e-06 3.41509e-06 3.41509e-06 3.41509e-06 3.41509e-06 3.41509e-06 3.41509e-06 3.41509e-06 3.41509e-06 3.41509e-06 3.41509e-06 3.41509e-06 3.41509e-06 4.96292 0.608585 -6.97363 179.305 -179.451 103.308 157.261 141.71 160.718 8.95741 73.2156 98.6079 115.205 141.399 146.156 180 -180 95.875 3.49093e-06 1.60444e-06 -49.3672 180 180 180 175 180 91 180 -180 70 180 -180 100 180 180 180 1.45113 -4.42895e-06 -67.7444 5.61101e-06 -6.03754e-07 -67.7443 3.89477e-06 3.74005e-06 -50.8083 180 180 180 5.00001 -3.20165e-06 -89 9.20841e-07 -5.05725e-06 -103.906 3.22134e-06 -3.98302e-06 -77.9296 180 180 180 10 3.84198e-06 -89 0 -0 -110 9.69729e-07 4.15727e-06 -80 
-24.0652 100.087 105.309 173.881 6.98338 2.41594 3.48393 -10.7426 -1.7645 179.976 174.373 -179.445 178.568 -176.349 179.498 6.04675 -8.94112 -4.88705 179.885 174.949 -179.375 179.043 -174.91 179.921 180 179.611 179.96 180 -179.868 -179.986 0.136984 1.9438 -1.88006 0.171929 -1.57731 -0.646131 0.171932 -1.57731 -0.646131 0.177463 -1.62543 -0.665935 175.622 179.463 -173.021 4.97975 -3.99173 77.4512 22.8565 44.5187 24.8178 1.43375 48.0322 -88.0888 90 80 57.5944 8.11139e-06 -4.03659e-06 31.1876 180 180 -169.406 180 180 180 180 -180 -180 180 180 180 180 -180 -180 180 180 180 180 -180 -180 180 180 180 180 -180 -180 180 180 180 180 -180 -180 180 180 180 180 -180 -180 180 180 180 180 -180 -180 180 180 180 180 -180 -180 4.96292 0.608585 -6.97363 179.302 -179.448 103.31 157.255 141.72 160.717 8.96372 73.2188 98.6139 115.205 141.399 146.156 5.77411e-06 6.10462e-07 -84.125 2.65249e-06 -6.60169e-07 -49.3672 5.12264e-06 6.83019e-06 -3.41509e-06 175 180 91 180 -180 70 180 -180 100 5.12264e-06 6.83019e-06 -3.41509e-06 1.45113 -4.42895e-06 -67.7444 1.75793e-06 1.01937e-06 -67.7444 3.00751e-06 -2.35233e-06 -50.8083 5.12264e-06 6.83019e-06 -3.41509e-06 5 -2.13443e-07 -89 7.00122e-06 -5.84481e-08 -103.906 5.84758e-06 3.63128e-06 -77.9296 5.12264e-06 6.83019e-06 -3.41509e-06 10 3.41509e-06 -89 180 180 70 2.61611e-06 2.19518e-06 -80 
-24.066 100.083 105.318 173.869 6.91445 2.42593 3.49905 -10.6857 -1.76167 179.976 174.36 -179.469 178.562 -176.348 179.512 6.05273 -8.87512 -4.89212 179.885 174.95 -179.373 179.045 -174.916 179.921 180 179.518 179.95 180 -179.873 -179.987 0.136993 1.9277 -1.88445 0.177387 -1.57355 -0.647759 0.17739 -1.57354 -0.647758 0.183088 -1.62154 -0.667614 175.626 179.464 -173.02 4.9936 -4.00315 77.4498 22.8546 44.5136 24.8222 1.42693 48.0311 -88.0979 90 80 57.5944 4.822e-06 -3.11856e-06 31.1876 180 -180 -169.406 180 -180 180 6.83019e-06 -0 -0 180 -180 180 6.83019e-06 -0 -0 180 -180 180 6.83019e-06 -0 -0 180 -180 180 6.83019e-06 -0 -0 180 -180 180 6.83019e-06 -0 -0 180 -180 180 6.83019e-06 -0 -0 180 -180 180 6.83019e-06 -0 -0 180 -180 180 6.83019e-06 -0 -0 4.96292 0.608585 -6.97363 179.292 -179.44 103.312 157.258 141.726 160.716 8.96764 73.2176 98.6174 115.205 141.399 146.156 6.83657e-07 -1.3183e-05 -84.125 9.12111e-06 -1.44569e-06 -49.3672 180 -180 180 175 -180 91 3.49685e-06 -2.44852e-06 -110 180 -180 100 180 -180 180 1.45113 -5.28272e-06 -67.7444 9.89572e-07 6.32133e-07 -67.7444 2.35233e-06 3.00751e-06 -50.8083 180 -180 180 5.00001 -5.76297e-06 -89 3.94654e-07 -5.7296e-06 -103.906 180 -180 102.07 180 -180 180 10 1.28066e-06 -89 180 -180 70 180 -180 100 
-24.0643 100.083 105.326 173.864 6.97479 2.42448 3.51229 -10.7566 -1.75982 179.975 174.349 -179.478 178.557 -176.347 179.516 6.0584 -8.94171 -4.8962 179.885 174.944 -179.372 179.047 -174.918 179.92 180 179.581 179.953 180 -179.888 -179.987 0.136966 1.9284 -1.88841 0.182083 -1.56815 -0.650005 0.182086 -1.56815 -0.650004 0.187929 -1.61599 -0.66993 175.628 179.464 -173.02 4.99877 -4.00774 77.4499 22.8604 44.518 24.8265 1.41954 48.0293 -88.1078 89.9999 80 57.5943 180 180 -148.812 2.94529e-06 1.60257e-06 10.5938 180 180 180 0 -0 -0 0 -0 -0 0 -0 -0 180 180 180 0 -0 -0 0 -0 -0 0 -0 -0 180 180 180 0 -0 -0 0 -0 -0 0 -0 -0 180 180 180 0 -0 -0 0 -0 -0 0 -0 -0 4.96292 0.608585 -6.97363 179.289 -179.438 103.356 157.234 141.701 160.682 8.97383 73.2182 98.6231 115.205 141.399 146.156 6.94226e-08 -4.53734e-06 -84.125 3.69078e-06 -3.94149e-06 -49.3672 8.53774e-06 1.70755e-06 -6.83019e-06 175 -180 91 1.02809e-05 -6.15649e-06 -110 180 -180 100 8.53774e-06 1.70755e-06 -6.83019e-06 1.45112 -8.21757e-06 -67.7444 9.54475e-06 3.33732e-07 -67.7444 180 180 129.192 8.53774e-06 1.70755e-06 -6.83019e-06 4.99999 -4.69575e-06 -89 5.77347e-06 -9.93909e-06 -103.906 0 -0 -77.9296 8.53774e-06 1.70755e-06 -6.83019e-06 10 -1.28066e-06 -89 180 -180 70 4.20934e-07 4.8113e-06 -80 
-24.0643 100.083 105.335 173.857 6.91625 2.44037 3.5263 -10.7086 -1.77284 179.975 174.337 -179.481 178.552 -176.346 179.517 6.06323 -8.88862 -4.9074 179.885 174.94 -179.37 179.049 -174.922 179.92 180 179.477 179.929 180 -179.833 -179.977 0.136886 1.94926 -1.89097 0.186215 -1.56136 -0.652561 0.186217 -1.56136 -0.65256 0.192185 -1.60898 -0.672566 175.632 179.464 -173.02 5.01214 -4.01844 77.448 22.8524 44.5117 24.8228 1.4128 48.0268 -88.1168 90.0002 80 57.5946 180 -180 -148.812 6.35548e-06 -5.33358e-08 10.5938 3.4151e-06 3.4151e-06 -3.4151e-06 3.41509e-06 3.41509e-06 -3.41509e-06 3.41509e-06 3.41509e-06 -3.41509e-06 3.41509e-06 3.41509e-06 -3.41509e-06 3.4151e-06 3.4151e-06 -3.4151e-06 3.41509e-06 3.41509e-06 -3.41509e-06 3.41509e-06 3.41509e-06 -3.41509e-06 3.41509e-06 3.41509e-06 -3.41509e-06 3.4151e-06 3.4151e-06 -3.4151e-06 3.41509e-06 3.41509e-06 -3.41509e-06 3.41509e-06 3.41509e-06 -3.41509e-06 3.41509e-06 3.41509e-06 -3.41509e-06 3.4151e-06 3.4151e-06 -3.4151e-06 3.41509e-06 3.41509e-06 -3.41509e-06 3.41509e-06 3.41509e-06 -3.41509e-06 3.41509e-06 3.41509e-06 -3.41509e-06 4.96292 0.608585 -6.97363 179.275 -179.426 103.357 157.244 141.704 160.682 8.98405 73.2193 98.6328 115.205 141.399 146.156 180 -180 95.875 2.31752e-06 -5.04245e-06 -49.3672 3.41509e-06 1.02453e-05 1.70755e-06 175 -180 91 1.95737e-06 -7.62415e-06 -110 180 -180 100 3.41509e-06 1.02453e-05 1.70755e-06 1.45112 -1.10991e-05 -67.7444 9.51838e-06 -6.80132e-07 -67.7444 180 180 129.192 3.41509e-06 1.02453e-05 1.70755e-06 5 -1.04587e-05 -89 5.71499e-06 -4.47258e-06 -103.906 0 -0 -77.9296 3.41509e-06 1.02453e-05 1.70755e-06 10 -5.12264e-06 -89 1.39293e-07 -4.26659e-06 -110 3.7137e-06 8.87123e-07 -80 
-24.0644 100.083 105.344 173.856 6.97547 2.42479 3.53352 -10.7694 -1.7539 179.974 174.325 -179.487 178.55 -176.343 179.516 6.06294 -8.94733 -4.90369 179.886 174.937 -179.361 179.051 -174.925 179.92 180 179.552 179.95 180 -179.882 -179.987 0.136956 1.92931 -1.88936 0.190374 -1.55284 -0.655266 0.190376 -1.55284 -0.655266 0.196471 -1.60021 -0.675355 175.634 179.465 -173.02 5.0189 -4.02373 77.4468 22.8525 44.5125 24.8211 1.40788 48.0239 -88.1233 90 80 57.5944 2.46349e-06 1.08527e-06 31.1876 6.35863e-06 -1.50055e-06 10.5938 180 180 180 3.41509e-06 3.41509e-06 -3.41509e-06 3.41509e-06 3.41509e-06 -3.41509e-06 3.41509e-06 3.41509e-06 -3.41509e-06 180 180 180 3.41509e-06 3.41509e-06 -3.41509e-06 3.41509e-06 3.41509e-06 -3.41509e-06 3.41509e-06 3.41509e-06 -3.41509e-06 180 180 180 3.41509e-06 3.41509e-06 -3.41509e-06 3.41509e-06 3.41509e-06 -3.41509e-06 3.41509e-06 3.41509e-06 -3.41509e-06 180 180 180 3.41509e-06 3.41509e-06 -3.41509e-06 3.41509e-06 3.41509e-06 -3.41509e-06 3.41509e-06 3.41509e-06 -3.41509e-06 4.96292 0.608585 -6.97363 179.27 -179.423 103.357 157.246 141.702 160.681 8.97865 73.2154 98.6274 115.205 141.399 146.156 180 -180 95.875 180 -180 130.633 1.70755e-06 -3.41509e-06 -6.83019e-06 175 180 91 9.37113e-06 -9.68853e-06 -110 180 -180 100 1.70755e-06 -3.41509e-06 -6.83019e-06 1.45113 -4.32223e-06 -67.7444 1.63235e-06 -1.37858e-06 -67.7444 180 180 129.192 1.70755e-06 -3.41509e-06 -6.83019e-06 5 6.4033e-07 -89 180 -180 76.0938 5.65993e-07 -6.13058e-06 -77.9296 1.70755e-06 -3.41509e-06 -6.83019e-06 10 8.53774e-07 -89 3.84654e-06 -2.69337e-06 -110 180 -180 100 
-24.0634 100.082 105.351 173.847 7 2.41983 3.54482 -10.8109 -1.75868 179.974 174.332 -179.487 178.549 -176.357 179.522 6.07243 -8.98562 -4.89794 179.886 174.933 -179.366 179.052 -174.928 179.92 180 179.59 179.959 180 -179.908 -179.99 0.13697 1.92157 -1.88961 0.195042 -1.54323 -0.657449 0.195045 -1.54323 -0.657449 0.201281 -1.5903 -0.677606 175.638 179.465 -173.02 5.02977 -4.03257 77.4456 22.845 44.5133 24.8167 1.40187 48.0204 -88.1313 90 80 57.5944 1.53261e-06 -2.20053e-06 31.1876 2.979e-06 2.72483e-06 10.5938 3.41509e-06 3.41509e-06 -3.41509e-06 3.41509e-06 3.41509e-06 -3.41509e-06 3.41509e-06 3.41509e-06 -3.41509e-06 3.41509e-06 3.41509e-06 -3.41509e-06 3.41509e-06 3.41509e-06 -3.41509e-06 3.41509e-06 3.41509e-06 -3.41509e-06 3.41509e-06 3.41509e-06 -3.41509e-06 3.41509e-06 3.41509e-06 -3.41509e-06 3.41509e-06 3.41509e-06 -3.41509e-06 3.41509e-06 3.41509e-06 -3.41509e-06 3.41509e-06 3.41509e-06 -3.41509e-06 3.41509e-06 3.41509e-06 -3.41509e-06 3.41509e-06 3.41509e-06 -3.41509e-06 3.41509e-06 3.41509e-06 -3.41509e-06 3.41509e-06 3.41509e-06 -3.41509e-06 3.41509e-06 3.41509e-06 -3.41509e-06 4.96292 0.608585 -6.97363 179.264 -179.418 103.358 157.249 141.704 160.681 8.97914 73.2102 98.6277 115.205 141.399 146.156 180 -180 95.875 2.18036e-06 2.41154e-06 -49.3672 180 180 -180 175 -180 91 1.02809e-05 -6.15649e-06 -110 180 -180 100 180 180 -180 1.45112 -8.21757e-06 -67.7444 9.54475e-06 3.33732e-07 -67.7444 180 180 129.192 180 180 -180 4.99999 -4.69575e-06 -89 5.77347e-06 -9.93909e-06 -103.906 0 -0 -77.9296 180 180 -180 10 -1.28066e-06 -89 180 -180 70 4.20934e-07 4.8113e-06 -80 
